<svg width="70" height="80" viewBox="0 0 70 80" xmlns="http://www.w3.org/2000/svg"><title>top-left</title><g fill="#F4B400" fill-rule="evenodd"><path d="M19.27 2.23c0-1.04.752-1.784 1.655-1.784 1.053 0 1.656.743 1.656 1.783s-.602 1.633-1.655 1.633c-.753 0-1.656-.743-1.656-1.634zM25.892 2.23c0-1.04.753-1.784 1.656-1.784 1.054 0 1.656.743 1.656 1.783s-.602 1.633-1.656 1.633c-.903 0-1.656-.743-1.656-1.634zM32.516 2.23c0-1.04.753-1.784 1.656-1.784 1.054 0 1.656.743 1.656 1.783s-.602 1.633-1.656 1.633c-.903 0-1.656-.743-1.656-1.634zM39.14 2.23c0-1.04.752-1.784 1.656-1.784 1.053 0 1.656.743 1.656 1.783s-.603 1.633-1.656 1.633c-.904 0-1.656-.743-1.656-1.634zM45.763 2.23c0-1.04.753-1.784 1.656-1.784 1.053 0 1.655.743 1.655 1.783s-.602 1.633-1.656 1.633c-.904 0-1.657-.743-1.657-1.634zM52.387 2.23c0-1.04.753-1.784 1.656-1.784 1.054 0 1.656.743 1.656 1.783s-.603 1.633-1.657 1.633c-.903 0-1.656-.743-1.656-1.634zM59.01 2.23c0-1.04.753-1.784 1.657-1.784 1.053 0 1.656.743 1.656 1.783s-.603 1.633-1.656 1.633c-.904 0-1.656-.743-1.656-1.634zM65.634 2.23c0-1.04.753-1.784 1.656-1.784 1.054 0 1.656.743 1.656 1.783s-.602 1.633-1.656 1.633c-.903 0-1.656-.743-1.656-1.634zM2.41 76.96C1.354 76.96.6 76.217.6 75.326c0-1.04.753-1.635 1.807-1.635 1.052 0 1.655.596 1.655 1.636 0 .89-.603 1.634-1.656 1.634zM2.41 70.423C1.354 70.423.6 69.68.6 68.79c0-1.04.753-1.636 1.807-1.636 1.052 0 1.655.595 1.655 1.635 0 .89-.603 1.633-1.656 1.633zM2.41 63.886c-.905 0-1.657-.595-1.657-1.486 0-1.04.752-1.634 1.806-1.634 1.053 0 1.655.594 1.655 1.634-.15.743-.753 1.486-1.806 1.486zM2.41 57.497C1.354 57.497.6 56.754.6 55.863c0-1.04.753-1.634 1.807-1.634 1.052 0 1.655.593 1.655 1.633 0 .743-.603 1.634-1.656 1.634zM2.41 50.81C1.354 50.81.6 50.07.6 49.178c0-1.04.753-1.634 1.807-1.634 1.052 0 1.655.594 1.655 1.634 0 .892-.603 1.634-1.656 1.634zM2.41 44.423C1.354 44.423.6 43.68.6 42.79c0-1.04.753-1.636 1.807-1.636 1.052 0 1.655.595 1.655 1.635 0 .74-.603 1.633-1.656 1.633zM2.41 37.886C1.354 37.886.6 37.143.6 36.25c0-1.04.753-1.633 1.807-1.633 1.052 0 1.655.594 1.655 1.634 0 .893-.603 1.636-1.656 1.636zM2.41 31.35C1.354 31.35.6 30.605.6 29.713c0-1.04.753-1.634 1.807-1.634 1.052 0 1.655.594 1.655 1.634 0 .743-.603 1.635-1.656 1.635zM2.41 24.81C1.354 24.81.6 24.07.6 23.178c0-1.04.753-1.634 1.807-1.634 1.052 0 1.655.594 1.655 1.634 0 .892-.603 1.634-1.656 1.634zM2.41 18.274C1.354 18.274.6 17.53.752 16.64c0-1.04.752-1.634 1.806-1.634 1.053 0 1.655.594 1.655 1.634-.15.89-.753 1.634-1.806 1.634zM2.41 12.034c-1.055-.148-1.507-1.04-1.356-1.93.3-.893 1.204-1.338 2.107-1.19.905.15 1.356 1.04 1.206 1.932-.3.89-1.054 1.485-1.957 1.188zM3.914 6.834c-.753-.594-.903-1.634-.3-2.228.752-.743 1.655-.743 2.408-.15.752.595.752 1.487.15 2.23-.602.594-1.505.89-2.258.148zM7.376 3.566c-.3-.892 0-1.783.904-2.23.903-.296 1.806.15 2.107 1.04.3.893 0 1.784-.903 2.08-.753.298-1.807 0-2.108-.89z" id="Shape"/><path d="M12.645 2.377c-.15-1.04.602-1.783 1.506-1.783 1.054-.148 1.656.595 1.807 1.635.15 1.04-.452 1.633-1.505 1.78-.904-.147-1.807-.74-1.807-1.633z"/></g></svg>