<svg width="70" height="75" viewBox="0 0 70 75" xmlns="http://www.w3.org/2000/svg"><title>bottom-left</title><g fill="#F4B400" fill-rule="evenodd"><path d="M70.602 72.73c0 1.04-.753 1.784-1.656 1.784-1.054 0-1.656-.743-1.656-1.783 0-.89.602-1.633 1.656-1.633.903.15 1.656.743 1.656 1.634zM63.978 72.73c0 1.04-.752 1.784-1.655 1.784-1.054 0-1.656-.743-1.656-1.783 0-.89.602-1.633 1.656-1.633.903.15 1.655.743 1.655 1.634zM57.355 72.73c0 1.04-.753 1.784-1.656 1.784-1.055 0-1.657-.743-1.657-1.783 0-.89.602-1.633 1.656-1.633.902.15 1.655.743 1.655 1.634zM50.73 72.73c0 1.04-.752 1.784-1.655 1.784-1.053 0-1.656-.743-1.656-1.783 0-.89.602-1.633 1.655-1.633.903.15 1.656.743 1.656 1.634zM44.108 72.73c0 1.04-.753 1.784-1.656 1.784-1.054 0-1.656-.743-1.656-1.783 0-.89.602-1.633 1.656-1.633.903.15 1.656.743 1.656 1.634zM37.484 72.73c0 1.04-.753 1.784-1.656 1.784-1.054 0-1.656-.743-1.656-1.783 0-.89.602-1.633 1.656-1.633.903.15 1.656.743 1.656 1.634zM30.86 72.73c0 1.04-.752 1.784-1.656 1.784-1.053 0-1.656-.743-1.656-1.783 0-.89.603-1.633 1.656-1.633.904.15 1.656.743 1.656 1.634zM24.387 72.73c0 1.04-.753 1.784-1.656 1.784-1.053 0-1.655-.743-1.655-1.783 0-.89.602-1.633 1.656-1.633.754.15 1.657.743 1.657 1.634zM17.763 72.88c0 1.04-.752 1.634-1.655 1.634-1.054 0-1.656-.743-1.656-1.783 0-.89.602-1.633 1.656-1.633.903.15 1.655.743 1.655 1.783zM11.59 72.73c-.3.893-1.203 1.487-2.106 1.19-.903-.297-1.355-1.19-1.054-2.08.3-.89 1.054-1.337 1.957-1.04.903.297 1.505 1.04 1.204 1.93zM6.624 70.95c-.753.74-1.656.74-2.41.147-.752-.743-.6-1.634 0-2.377.603-.594 1.657-.743 2.26 0 .752.594.902 1.634.15 2.23zM3.462 66.937c-1.053.15-1.957-.297-2.107-1.188-.3-.893.15-1.636 1.054-1.933.902-.297 1.805.15 1.956 1.04.3.743 0 1.783-.904 2.08zM2.56 61.59c-1.055 0-1.807-.596-1.807-1.636s.752-1.634 1.656-1.634c.902 0 1.655.594 1.655 1.634 0 .743-.603 1.486-1.506 1.635zM2.41 55.05C1.354 55.05.6 54.31.6 53.418c0-1.04.753-1.634 1.807-1.634 1.052 0 1.655.594 1.655 1.634 0 .892-.603 1.634-1.656 1.634zM2.41 48.663C1.354 48.663.6 47.92.6 47.03c0-1.04.753-1.636 1.807-1.636 1.052 0 1.655.595 1.655 1.635 0 .74-.603 1.633-1.656 1.633zM2.41 42.126C1.354 42.126.6 41.383.6 40.49c.15-1.04.903-1.633 1.807-1.633.902 0 1.655.594 1.655 1.634 0 .744-.603 1.636-1.656 1.636zM2.41 35.59C1.354 35.59.6 34.845.6 33.953c0-1.04.753-1.634 1.807-1.634 1.052 0 1.655.594 1.655 1.634 0 .743-.603 1.635-1.656 1.635zM2.41 29.05C1.354 29.05.6 28.31.6 27.418c0-1.04.753-1.634 1.807-1.634 1.052 0 1.655.594 1.655 1.634 0 .743-.603 1.634-1.656 1.634zM2.41 22.514C1.354 22.514.6 21.77.6 20.88c0-1.04.753-1.634 1.807-1.634 1.052 0 1.655.594 1.655 1.634 0 .89-.603 1.634-1.656 1.634zM2.41 16.57C1.354 16.57.6 15.83.6 14.938c0-1.04.753-1.634 1.807-1.634 1.052 0 1.655.594 1.655 1.634 0 .743-.603 1.634-1.656 1.634zM2.41 10.034C1.354 10.034.6 9.29.6 8.4c0-1.04.753-1.634 1.807-1.634 1.052 0 1.655.594 1.655 1.634 0 .89-.603 1.634-1.656 1.634z" id="Shape"/><path d="M2.41 3.497C1.354 3.497.6 2.754.6 1.863.752.823 1.505.23 2.41.23c.902 0 1.655.593 1.655 1.633 0 .89-.603 1.634-1.656 1.634z"/></g></svg>