<svg width="70" height="80" viewBox="0 0 70 80" xmlns="http://www.w3.org/2000/svg"><title>top-right</title><g fill="#F4B400" fill-rule="evenodd"><path d="M2.258 2.23c0-1.04.753-1.784 1.656-1.784 1.054 0 1.656.743 1.656 1.783s-.753 1.633-1.807 1.633c-.752 0-1.505-.743-1.505-1.634zM8.882 2.23c0-1.04.752-1.784 1.656-1.784 1.053 0 1.656.743 1.656 1.783s-.603 1.633-1.656 1.633c-.904 0-1.656-.743-1.656-1.634zM15.355 2.23c0-1.04.753-1.784 1.656-1.784 1.055 0 1.657.743 1.657 1.783s-.602 1.633-1.656 1.633c-.752 0-1.655-.743-1.655-1.634zM21.978 2.23c0-1.04.753-1.784 1.656-1.784 1.054 0 1.656.743 1.656 1.783s-.602 1.633-1.656 1.633c-.752 0-1.656-.743-1.656-1.634zM28.602 2.23c0-1.04.753-1.784 1.656-1.784 1.054 0 1.656.743 1.656 1.783s-.602 1.633-1.656 1.633c-.903 0-1.656-.743-1.656-1.634zM35.226 2.23c0-1.04.752-1.784 1.656-1.784 1.053 0 1.656.743 1.656 1.783s-.603 1.633-1.656 1.633c-.904 0-1.656-.743-1.656-1.634zM41.85 2.23c0-1.04.752-1.784 1.655-1.784 1.054 0 1.656.743 1.656 1.783s-.75 1.633-1.655 1.633c-.903 0-1.656-.743-1.656-1.634zM48.473 2.23c0-1.04.753-1.784 1.656-1.784 1.053 0 1.655.743 1.655 1.783s-.602 1.633-1.656 1.633c-.904 0-1.657-.743-1.657-1.634zM54.796 2.08c.15-1.04.903-1.634 1.806-1.486 1.054.15 1.506.892 1.506 1.783-.15.892-.753 1.486-1.807 1.486-.902-.15-1.655-.892-1.504-1.783zM60.667 2.674c.45-.89 1.505-1.188 2.258-.743.903.447 1.053 1.487.602 2.23-.452.743-1.355 1.04-2.258.594-.754-.297-1.205-1.188-.603-2.08zM64.882 5.646c.903-.446 1.806-.297 2.258.445.45.893.15 1.784-.602 2.23-.753.446-1.656.297-2.258-.594-.302-.595-.302-1.635.602-2.08zM67.14 10.846c1.054-.15 1.806.445 1.957 1.337.15 1.04-.602 1.634-1.506 1.783-.902.148-1.655-.446-1.805-1.486-.3-.743.3-1.486 1.355-1.634zM67.29 16.937c1.054 0 1.807.743 1.807 1.634 0 1.04-.753 1.636-1.807 1.636-.903 0-1.656-.595-1.656-1.635 0-.89.603-1.633 1.656-1.633zM67.29 23.474c1.054 0 1.807.743 1.807 1.635 0 1.04-.753 1.633-1.807 1.633-.903 0-1.656-.594-1.656-1.634 0-.893.603-1.636 1.656-1.636zM67.29 30.01c1.054 0 1.807.744 1.807 1.636 0 1.04-.753 1.634-1.807 1.634-.903 0-1.656-.594-1.656-1.634 0-.892.603-1.635 1.656-1.635zM67.29 36.4c1.054 0 1.807.743 1.807 1.634 0 1.04-.753 1.635-1.807 1.635-.903 0-1.656-.596-1.656-1.636 0-.743.603-1.634 1.656-1.634zM67.29 43.086c1.054 0 1.807.743 1.807 1.634 0 1.04-.753 1.634-1.807 1.634-.903 0-1.656-.594-1.656-1.634 0-.89.603-1.634 1.656-1.634zM67.29 49.474c1.054 0 1.807.743 1.807 1.635 0 1.04-.753 1.633-1.807 1.633-.903 0-1.656-.594-1.656-1.634 0-.744.603-1.636 1.656-1.636zM67.29 56.01c1.054 0 1.807.744 1.807 1.636 0 1.04-.753 1.634-1.807 1.634-.903 0-1.656-.594-1.656-1.634 0-.892.603-1.635 1.656-1.635zM67.29 62.55c1.054 0 1.807.74 1.807 1.633 0 1.04-.753 1.634-1.807 1.634-.903 0-1.656-.594-1.656-1.634 0-.743.603-1.634 1.656-1.634zM67.29 69.086c1.054 0 1.807.743 1.807 1.634 0 1.04-.753 1.634-1.807 1.634-.903 0-1.656-.594-1.656-1.634 0-.89.603-1.634 1.656-1.634z" id="Shape"/><path d="M67.29 75.623c1.054 0 1.807.743 1.807 1.634 0 1.04-.753 1.634-1.807 1.634-.903 0-1.656-.593-1.656-1.633 0-.89.603-1.634 1.656-1.634z"/></g></svg>