<svg width="70" height="75" viewBox="0 0 70 75" xmlns="http://www.w3.org/2000/svg"><title>bottom-right</title><g fill="#F4B400" fill-rule="evenodd"><path d="M67.29 2.16c1.054 0 1.807.743 1.807 1.634 0 1.04-.753 1.635-1.807 1.635-.903 0-1.656-.596-1.656-1.636 0-.89.603-1.634 1.656-1.634zM67.29 8.697c1.054 0 1.807.743 1.807 1.634 0 1.04-.753 1.636-1.807 1.636-.903 0-1.656-.595-1.656-1.635 0-.89.603-1.633 1.656-1.633zM67.29 15.234c1.054 0 1.807.743 1.807 1.635 0 1.04-.753 1.633-1.807 1.633-.903 0-1.656-.594-1.656-1.634 0-.893.603-1.636 1.656-1.636zM67.29 21.623c1.054 0 1.807.743 1.807 1.634 0 1.04-.753 1.634-1.807 1.634-.903 0-1.656-.593-1.656-1.633 0-.743.603-1.634 1.656-1.634zM67.29 28.16c1.054 0 1.807.743 1.807 1.634 0 1.04-.753 1.635-1.807 1.635-.903 0-1.656-.596-1.656-1.636 0-.743.603-1.634 1.656-1.634zM67.29 34.697c1.054 0 1.807.743 1.807 1.634 0 1.04-.753 1.636-1.807 1.636-.903 0-1.656-.595-1.656-1.635 0-.74.603-1.633 1.656-1.633zM67.29 41.234c1.054 0 1.807.743 1.807 1.635 0 1.04-.753 1.633-1.807 1.633-.903 0-1.656-.594-1.656-1.634 0-.744.603-1.636 1.656-1.636zM67.29 47.77c1.054 0 1.807.744 1.807 1.636 0 1.04-.753 1.634-1.807 1.634-.903 0-1.656-.594-1.656-1.634 0-.892.603-1.635 1.656-1.635zM67.29 54.31c1.054 0 1.807.74 1.807 1.633 0 1.04-.753 1.634-1.807 1.634-.903 0-1.656-.594-1.656-1.634 0-.892.603-1.634 1.656-1.634zM67.44 60.55c1.055.147 1.657.89 1.506 1.78-.15 1.04-.903 1.487-1.957 1.487-.904-.148-1.506-.743-1.506-1.783.3-.89.903-1.634 1.957-1.485zM66.688 66.194c.903.446 1.204 1.486.753 2.23-.45.89-1.505 1.04-2.257.593-.753-.446-1.054-1.337-.602-2.228.302-.596 1.205-1.04 2.108-.596zM63.828 70.354c.602.892.452 1.783-.452 2.377-.752.596-1.806.3-2.258-.593-.45-.743-.3-1.634.452-2.228.753-.447 1.656-.3 2.258.444zM59.462 72.434c.15 1.04-.45 1.783-1.354 1.932-.904.148-1.807-.595-1.807-1.486 0-.89.453-1.634 1.356-1.783.753-.148 1.656.446 1.806 1.337zM53.44 72.73c0 1.04-.752 1.784-1.655 1.784-1.054 0-1.656-.743-1.656-1.783 0-.89.6-1.633 1.655-1.633.903.15 1.656.743 1.656 1.634zM46.817 72.73c0 1.04-.752 1.784-1.656 1.784-1.052 0-1.655-.743-1.655-1.783 0-.89.603-1.633 1.656-1.633.905.15 1.657.743 1.657 1.634zM40.194 72.73c0 1.04-.753 1.784-1.656 1.784-1.054 0-1.656-.743-1.656-1.783 0-.89.602-1.633 1.656-1.633.903.15 1.656.743 1.656 1.634zM33.57 72.73c0 1.04-.753 1.784-1.656 1.784-1.054 0-1.656-.743-1.656-1.783 0-.89.602-1.633 1.656-1.633.903.15 1.656.743 1.656 1.634zM26.946 72.73c0 1.04-.752 1.784-1.656 1.784-1.053 0-1.656-.743-1.656-1.783 0-.89.603-1.633 1.656-1.633.904.15 1.656.743 1.656 1.634zM20.323 72.73c0 1.04-.753 1.784-1.656 1.784-1.054 0-1.656-.743-1.656-1.783 0-.89.603-1.633 1.657-1.633.903.15 1.656.743 1.656 1.634zM13.85 72.73c0 1.04-.753 1.784-1.656 1.784-1.054 0-1.656-.743-1.656-1.783 0-.89.602-1.633 1.656-1.633.752.15 1.655.743 1.655 1.634zM7.226 72.73c0 1.04-.753 1.784-1.656 1.784-1.054 0-1.656-.743-1.656-1.783 0-.89.602-1.633 1.656-1.633.903.15 1.656.743 1.656 1.634z" id="Shape"/><path d="M.602 72.73c0 1.04-.753 1.784-1.656 1.784-1.054 0-1.656-.743-1.656-1.783 0-.89.602-1.633 1.656-1.633.903.15 1.656.743 1.656 1.634z"/></g></svg>